<svg id="splitsvg" version="1.1" xmlns="http://www.w3.org/2000/svg" xmlns:xlink="http://www.w3.org/1999/xlink" width="400" height="400"><g id="svgg"><path id="path0" d="M315.000 65.098 C 312.625 65.599,310.503 66.080,307.400 66.821 C 306.520 67.031,304.720 67.386,303.400 67.610 C 297.319 68.640,295.298 70.667,297.057 73.972 C 298.813 77.272,297.930 84.736,295.701 85.449 C 295.315 85.572,294.640 85.820,294.200 86.000 C 292.567 86.668,292.087 86.727,291.670 86.310 C 291.093 85.733,291.487 83.907,292.844 80.874 C 295.200 75.607,294.822 74.353,291.724 77.159 C 290.583 78.193,289.143 79.295,288.524 79.607 C 283.997 81.896,276.400 89.289,276.400 91.406 C 276.400 92.627,272.000 97.493,270.089 98.385 C 269.490 98.664,268.687 99.052,268.305 99.247 C 267.923 99.441,267.283 99.600,266.882 99.600 C 266.246 99.600,264.726 100.737,260.800 104.151 C 260.250 104.629,257.185 107.288,253.989 110.060 C 250.793 112.832,247.468 115.978,246.601 117.050 C 238.605 126.939,226.213 130.281,217.820 124.813 C 214.603 122.717,211.127 122.520,208.035 124.259 C 201.704 127.817,198.465 120.909,200.786 108.800 C 201.170 106.795,200.941 106.190,200.253 107.390 C 197.716 111.815,195.170 111.819,193.137 107.400 L 192.217 105.400 191.971 111.600 C 191.501 123.451,189.218 126.997,183.887 124.159 C 180.255 122.225,175.180 122.464,171.064 124.762 C 166.313 127.413,164.214 127.456,157.079 125.048 C 154.067 124.032,151.343 123.200,151.025 123.200 C 150.707 123.200,149.401 122.283,148.123 121.162 C 145.763 119.091,140.833 115.342,134.758 111.000 C 132.911 109.680,129.948 107.115,128.173 105.300 C 124.654 101.701,123.682 101.320,121.662 102.753 C 116.920 106.117,115.266 105.963,116.926 102.311 C 119.016 97.716,119.021 97.664,117.642 95.011 C 116.959 93.697,116.400 92.411,116.400 92.154 C 116.400 91.155,115.234 91.315,114.045 92.477 C 112.826 93.670,112.800 93.773,112.800 97.467 C 112.800 101.466,112.270 103.213,110.822 103.988 C 107.727 105.645,104.626 101.477,106.387 98.025 C 106.834 97.149,107.200 96.087,107.200 95.665 C 107.200 94.309,108.299 92.237,109.769 90.822 C 110.556 90.063,111.200 89.217,111.200 88.940 C 111.200 87.778,110.237 86.400,109.425 86.400 C 108.043 86.400,106.969 85.364,106.230 83.321 C 104.281 77.929,102.802 76.085,99.575 75.030 C 96.761 74.109,96.320 74.520,96.444 77.947 C 96.502 79.526,96.370 80.610,96.111 80.696 C 95.750 80.817,89.235 76.862,87.717 75.601 C 87.451 75.381,87.126 75.200,86.995 75.200 C 86.864 75.200,85.696 74.480,84.400 73.600 C 81.550 71.665,81.600 71.669,81.600 73.364 C 81.600 75.674,79.836 76.800,76.218 76.800 C 73.103 76.800,71.041 77.429,69.853 78.742 C 68.856 79.844,69.333 80.400,71.277 80.400 C 73.646 80.400,76.329 81.161,79.538 82.743 C 81.266 83.595,83.527 83.809,84.941 83.252 C 86.138 82.781,89.793 83.695,93.067 85.283 L 94.734 86.092 94.667 90.746 C 94.592 95.925,95.021 97.135,98.164 100.626 C 99.612 102.234,100.005 103.982,99.261 105.505 C 98.049 107.985,97.559 108.655,96.637 109.100 C 96.067 109.375,95.109 109.830,94.509 110.110 C 93.510 110.578,91.600 112.889,91.600 113.631 C 91.600 114.740,92.882 115.132,95.788 114.912 C 97.885 114.754,98.961 114.835,99.382 115.185 C 100.072 115.758,101.200 117.886,101.200 118.616 C 101.200 118.887,101.457 119.604,101.772 120.210 L 102.343 121.312 103.148 119.956 C 103.590 119.210,104.100 118.420,104.280 118.200 C 104.460 117.980,105.056 116.938,105.604 115.884 C 108.003 111.268,109.764 109.653,111.832 110.172 C 112.754 110.404,113.361 112.800,112.498 112.800 C 112.331 112.800,111.970 113.295,111.695 113.900 C 111.420 114.505,110.132 116.440,108.834 118.200 C 107.535 119.960,105.926 122.524,105.258 123.899 C 104.486 125.487,103.671 126.567,103.022 126.863 C 102.074 127.294,102.000 127.523,102.000 130.002 C 102.000 133.294,101.608 133.712,97.878 134.398 L 95.155 134.899 98.400 137.071 C 102.152 139.584,104.197 141.438,104.569 142.664 C 105.145 144.562,110.487 146.248,114.620 145.836 C 117.685 145.530,118.798 146.127,117.948 147.621 C 117.095 149.120,116.348 149.560,115.319 149.169 C 114.692 148.931,113.882 149.044,112.705 149.534 C 108.925 151.109,107.756 151.334,105.851 150.855 C 100.957 149.622,95.832 151.397,93.030 155.295 L 91.874 156.903 92.625 158.298 C 93.666 160.232,94.085 160.278,96.704 158.744 C 98.964 157.420,100.325 156.740,102.100 156.050 C 102.595 155.857,103.503 155.497,104.119 155.250 C 107.199 154.012,108.172 154.972,105.710 156.820 C 104.575 157.672,103.494 158.965,102.883 160.200 C 102.340 161.300,101.738 162.513,101.547 162.895 C 101.356 163.277,101.200 164.031,101.200 164.571 C 101.200 165.111,101.020 165.664,100.800 165.800 C 100.580 165.936,100.400 166.476,100.400 167.000 C 100.400 167.524,100.220 168.064,100.000 168.200 C 99.780 168.336,99.600 168.735,99.600 169.086 C 99.600 169.889,101.389 167.898,102.103 166.300 C 102.374 165.695,102.731 165.200,102.898 165.200 C 103.064 165.200,103.201 164.975,103.202 164.700 C 103.205 163.907,107.493 159.312,108.872 158.624 C 110.503 157.810,111.704 157.836,113.519 158.724 C 117.315 160.581,117.683 161.345,115.100 162.001 C 111.763 162.849,109.973 164.454,109.412 167.100 C 109.072 168.703,109.412 168.733,110.981 167.238 C 112.469 165.821,115.291 164.835,118.780 164.514 C 123.271 164.101,125.467 162.044,123.787 159.824 C 121.797 157.192,125.397 156.551,128.900 158.913 C 129.867 159.565,130.000 159.909,130.000 161.763 C 130.000 166.424,136.117 166.567,139.017 161.974 C 140.576 159.503,141.401 160.020,141.259 163.379 C 141.165 165.598,140.157 166.817,136.511 169.120 C 134.591 170.333,134.398 171.132,135.672 172.597 C 136.820 173.918,138.074 173.863,140.200 172.400 C 141.691 171.374,142.315 171.200,144.497 171.200 C 147.278 171.200,147.581 171.001,150.139 167.505 C 152.245 164.627,154.400 164.474,154.400 167.203 C 154.400 168.056,154.220 168.864,154.000 169.000 C 153.780 169.136,153.600 169.968,153.600 170.850 C 153.600 171.731,153.409 172.810,153.175 173.247 C 152.941 173.684,152.807 174.339,152.877 174.703 C 152.987 175.273,155.627 171.138,158.769 165.474 C 160.387 162.557,160.935 161.945,162.762 161.015 C 165.239 159.754,166.122 158.920,167.178 156.846 C 168.296 154.650,169.857 153.060,170.611 153.349 C 171.338 153.628,171.019 154.547,169.534 156.458 C 168.910 157.259,168.400 158.194,168.400 158.534 C 168.400 158.874,168.220 159.264,168.000 159.400 C 167.537 159.686,167.453 161.198,167.900 161.203 C 168.861 161.213,169.663 165.667,168.800 166.200 C 168.175 166.586,168.330 168.244,169.046 168.839 C 171.259 170.675,173.259 170.486,176.200 168.162 C 178.991 165.957,183.828 162.858,184.900 162.589 C 186.855 162.099,186.978 162.913,187.994 183.000 C 188.372 190.453,188.622 192.833,189.171 194.200 C 189.348 194.640,189.675 195.450,189.897 196.000 C 190.119 196.550,190.487 197.469,190.716 198.043 C 191.143 199.117,191.876 206.130,191.672 207.200 C 191.610 207.530,191.433 210.301,191.279 213.358 C 190.938 220.150,190.789 220.349,187.313 218.647 C 177.080 213.638,174.207 208.605,178.896 203.900 L 179.993 202.800 178.625 202.800 C 177.272 202.800,174.800 205.016,174.800 206.230 C 174.800 206.476,174.502 207.275,174.137 208.005 L 173.475 209.334 171.703 207.367 C 166.070 201.112,163.528 199.060,160.589 198.397 C 158.799 197.994,158.830 198.125,161.100 200.566 C 165.836 205.658,166.257 206.482,164.800 207.800 C 162.964 209.462,163.657 210.934,167.501 213.538 C 172.019 216.597,172.365 218.904,168.591 220.800 C 167.496 221.350,166.529 221.841,166.441 221.892 C 166.354 221.942,166.669 222.994,167.142 224.229 C 167.615 225.464,167.900 226.638,167.777 226.837 C 167.351 227.527,163.675 227.234,162.310 226.401 C 160.851 225.512,156.491 225.269,155.726 226.034 C 154.420 227.340,153.404 226.286,153.282 223.500 C 153.153 220.559,153.487 220.207,155.314 221.358 C 159.204 223.810,160.458 220.995,157.037 217.491 C 153.651 214.022,151.976 213.152,146.400 211.965 C 141.028 210.821,140.416 210.058,142.108 206.609 C 143.764 203.233,143.583 200.821,141.776 202.187 C 140.903 202.848,138.968 202.995,138.617 202.428 C 138.491 202.223,136.185 201.207,133.494 200.169 C 128.078 198.082,127.453 197.642,125.992 194.895 C 124.697 192.459,123.909 192.356,120.268 194.146 C 115.332 196.574,114.337 196.702,115.198 194.800 C 116.610 191.685,117.161 191.233,120.506 190.447 C 125.259 189.331,127.119 189.852,128.562 192.700 C 129.183 193.926,129.344 194.000,131.391 194.000 C 133.475 194.000,134.079 193.841,137.200 192.474 C 138.493 191.908,139.338 191.680,143.200 190.857 L 144.600 190.559 143.400 190.249 C 142.268 189.957,140.125 189.600,136.000 189.016 C 132.406 188.507,126.787 186.918,121.800 185.001 C 120.260 184.409,118.510 183.741,117.911 183.518 C 117.033 183.191,116.684 182.645,116.111 180.706 C 115.284 177.907,114.857 177.628,112.958 178.649 C 109.551 180.480,108.803 182.333,108.793 188.960 C 108.787 193.603,108.738 193.881,107.600 195.800 C 105.802 198.832,105.962 200.099,108.567 203.452 C 110.665 206.152,112.060 207.200,113.556 207.200 C 114.194 207.200,116.355 209.426,117.984 211.763 C 118.305 212.223,118.812 212.851,119.112 213.157 C 122.381 216.499,126.609 222.921,130.642 230.671 C 141.077 250.719,140.345 249.396,143.971 254.781 C 146.235 258.143,148.734 261.435,150.309 263.128 C 151.649 264.569,152.055 266.240,152.444 271.920 C 152.665 275.154,153.013 278.700,153.216 279.800 C 154.097 284.571,154.008 291.623,152.978 298.600 C 152.674 300.660,153.922 302.305,155.189 301.514 C 156.346 300.791,156.577 297.058,155.976 288.773 C 155.373 280.455,155.548 279.789,157.651 282.434 C 160.865 286.477,164.453 289.876,168.000 292.241 C 176.846 298.137,183.676 305.075,184.786 309.293 C 185.682 312.698,185.893 318.777,185.180 320.653 C 184.273 323.037,184.499 326.765,185.600 327.598 L 186.600 328.355 187.078 324.677 C 187.341 322.655,187.566 319.935,187.578 318.633 C 187.658 310.094,190.970 306.805,192.387 313.855 C 193.041 317.105,193.129 326.254,192.518 327.400 C 191.198 329.877,191.627 334.665,193.089 333.759 C 193.835 333.295,193.928 332.526,194.561 321.600 C 195.164 311.183,195.642 309.912,199.542 308.360 C 200.784 307.866,202.930 306.953,204.310 306.331 C 205.691 305.709,206.998 305.200,207.215 305.200 C 207.433 305.200,207.923 305.041,208.305 304.847 C 208.687 304.652,209.450 304.315,210.000 304.096 C 210.550 303.878,211.533 303.484,212.184 303.220 C 214.304 302.362,214.822 303.810,213.800 307.735 C 212.734 311.828,213.044 313.600,214.825 313.600 C 215.796 313.600,215.998 313.408,216.194 312.300 C 216.680 309.553,217.298 304.877,217.554 302.000 C 217.943 297.644,218.774 296.402,223.600 292.976 C 227.586 290.146,231.554 286.788,232.456 285.483 C 232.944 284.778,234.046 283.480,234.905 282.600 C 237.296 280.151,238.245 278.222,239.604 273.052 C 241.319 266.533,242.105 265.200,244.238 265.200 C 244.961 265.200,245.672 265.393,245.818 265.630 C 246.069 266.035,246.055 284.757,245.801 288.200 C 245.737 289.080,245.476 292.950,245.221 296.800 C 244.504 307.657,243.372 319.990,242.779 323.400 C 241.662 329.831,242.014 330.800,245.467 330.800 L 247.303 330.800 246.993 326.300 C 246.822 323.825,246.679 317.840,246.675 313.000 C 246.669 305.020,246.856 301.420,248.004 287.400 C 248.203 284.980,248.548 280.750,248.771 278.000 C 250.652 254.842,250.416 255.807,256.708 245.600 C 258.132 243.290,259.905 240.458,260.648 239.306 C 261.392 238.155,262.000 237.107,262.000 236.978 C 262.000 236.849,262.540 235.959,263.200 235.000 C 263.860 234.041,264.400 233.078,264.400 232.861 C 264.400 232.644,264.535 232.407,264.700 232.333 C 264.865 232.260,265.342 231.570,265.761 230.800 C 271.636 219.986,280.510 208.026,282.687 207.987 C 283.493 207.973,284.795 207.094,284.809 206.556 C 284.814 206.360,285.170 205.750,285.600 205.200 C 286.520 204.024,286.709 199.323,285.939 196.753 C 285.561 195.493,285.607 194.662,286.193 192.177 C 286.690 190.065,286.832 188.414,286.659 186.757 C 286.395 184.232,286.643 183.458,288.327 181.550 C 289.946 179.717,288.941 176.874,286.400 176.093 C 280.781 174.365,278.800 174.668,278.800 177.253 C 278.800 177.858,278.620 178.464,278.400 178.600 C 278.180 178.736,277.997 179.152,277.993 179.524 C 277.982 180.536,274.852 184.553,273.225 185.640 C 272.441 186.164,271.710 186.684,271.600 186.796 C 271.130 187.275,269.563 188.000,269.000 188.000 C 268.664 188.000,268.077 188.166,267.695 188.368 C 266.443 189.032,260.260 189.671,257.400 189.432 C 253.408 189.099,250.280 188.626,249.705 188.267 C 249.376 188.062,249.282 188.148,249.426 188.523 C 249.707 189.256,251.804 190.241,255.200 191.236 C 256.190 191.526,257.540 192.057,258.200 192.415 C 259.398 193.067,260.828 193.417,264.600 193.981 C 265.700 194.146,266.907 194.414,267.283 194.576 C 267.814 194.807,268.022 194.620,268.216 193.736 C 269.090 189.751,270.470 188.400,273.669 188.400 C 277.255 188.400,278.000 189.059,278.000 192.232 C 278.000 195.418,277.160 196.181,275.329 194.658 C 272.823 192.574,272.587 192.575,270.476 194.684 C 268.659 196.499,265.465 198.435,258.200 202.125 C 253.452 204.536,253.424 204.545,252.426 203.938 C 251.479 203.362,250.400 201.213,250.400 199.902 C 250.400 199.214,250.310 199.177,249.760 199.633 C 249.232 200.072,249.166 200.686,249.381 203.182 C 250.082 211.325,249.856 211.680,243.980 211.642 L 240.742 211.620 237.171 215.164 C 233.325 218.981,233.148 219.397,234.062 222.448 C 234.572 224.151,235.667 225.065,237.436 225.267 C 238.999 225.446,239.236 226.832,237.831 227.583 C 237.073 227.989,236.017 228.044,233.514 227.807 C 229.478 227.425,228.820 227.425,225.900 227.809 C 223.321 228.149,223.181 227.980,224.327 225.912 C 225.750 223.346,225.733 223.245,223.811 222.761 C 220.601 221.953,220.382 221.265,222.223 217.782 C 223.940 214.533,225.335 212.838,227.198 211.738 C 228.718 210.840,228.718 209.926,227.200 208.337 C 225.658 206.723,225.683 206.473,227.600 204.295 C 229.649 201.967,229.624 201.866,227.050 202.079 C 223.047 202.411,219.135 204.961,216.949 208.664 C 215.327 211.411,214.730 211.265,215.044 208.198 C 215.359 205.127,214.946 204.400,212.889 204.400 C 211.572 204.400,211.518 204.447,212.102 205.100 C 213.193 206.320,213.118 207.264,211.509 212.518 C 210.580 215.554,211.313 215.007,203.682 218.364 C 199.194 220.339,199.086 220.345,198.480 218.672 C 197.915 217.108,197.841 210.523,198.365 208.446 C 198.566 207.651,198.946 206.010,199.210 204.800 C 199.473 203.590,200.768 200.302,202.087 197.493 C 205.030 191.226,205.593 188.112,205.597 178.084 C 205.602 166.818,206.397 162.000,208.253 162.000 C 210.625 162.000,216.950 166.187,218.652 168.883 C 220.848 172.361,223.882 169.649,224.563 163.600 C 225.527 155.029,225.370 155.149,230.012 159.411 C 235.199 164.173,239.599 166.081,244.026 165.487 C 245.328 165.313,245.713 165.426,246.204 166.127 C 246.979 167.234,246.992 169.200,246.224 169.200 C 245.366 169.200,245.053 169.964,245.512 170.938 C 245.736 171.412,246.136 172.430,246.400 173.200 C 247.016 174.994,247.365 175.872,248.148 177.600 L 248.782 179.000 248.791 176.824 C 248.796 175.627,249.013 173.618,249.273 172.360 L 249.745 170.071 254.851 170.135 C 258.476 170.181,260.102 170.055,260.458 169.700 C 260.860 169.300,260.765 169.199,259.980 169.194 C 257.300 169.178,253.939 167.072,253.489 165.126 C 253.371 164.617,252.969 163.064,252.595 161.675 C 251.723 158.433,251.369 158.594,259.102 158.715 C 266.037 158.824,267.119 159.025,271.471 161.015 C 275.615 162.911,277.896 162.298,281.548 158.309 C 283.608 156.059,283.770 156.028,285.158 157.618 C 286.028 158.615,286.671 158.899,288.705 159.187 C 290.074 159.380,291.709 159.908,292.348 160.363 C 293.932 161.491,297.600 165.616,297.600 166.269 C 297.600 166.561,297.736 166.800,297.902 166.800 C 298.483 166.800,300.790 172.810,300.818 174.394 C 300.832 175.211,300.944 175.099,301.412 173.800 C 302.625 170.431,301.762 167.034,298.624 162.838 C 296.978 160.637,291.337 155.784,289.701 155.162 C 287.639 154.378,288.883 153.200,291.773 153.200 C 295.552 153.200,299.600 150.522,299.600 148.023 C 299.600 147.282,295.789 144.676,294.652 144.640 C 293.454 144.602,293.396 144.523,293.318 142.800 C 293.273 141.810,293.123 140.368,292.985 139.595 C 292.592 137.389,294.213 135.904,299.200 133.904 C 304.411 131.815,305.311 130.584,304.981 126.000 C 304.629 121.107,305.386 120.375,311.550 119.652 L 313.700 119.400 309.417 115.704 L 305.133 112.008 303.370 114.173 C 299.320 119.145,295.722 118.938,296.352 113.768 C 296.777 110.277,296.744 110.204,294.345 109.341 C 291.856 108.446,291.271 107.819,291.933 106.758 C 292.286 106.194,292.302 105.764,291.992 105.185 C 291.161 103.632,292.818 103.667,293.979 105.227 C 295.308 107.014,300.000 111.600,300.499 111.600 C 300.897 111.600,301.502 110.909,304.140 107.439 C 306.631 104.162,305.750 101.242,302.262 101.213 C 298.093 101.178,296.403 97.563,299.574 95.465 C 303.078 93.146,304.375 91.055,306.440 84.400 C 309.215 75.455,310.624 74.534,320.229 75.387 C 325.586 75.863,329.600 74.051,329.600 71.159 C 329.600 69.684,329.425 69.703,327.572 71.377 C 324.239 74.389,321.420 73.352,318.396 68.001 C 318.111 67.497,317.851 67.481,316.746 67.898 C 314.125 68.887,314.409 67.154,317.116 65.639 C 318.419 64.910,317.278 64.618,315.000 65.098 M283.723 144.369 C 284.645 144.573,286.705 144.949,288.300 145.206 C 289.895 145.463,291.200 145.792,291.200 145.939 C 291.200 146.343,288.179 147.200,286.753 147.200 C 286.060 147.200,284.813 147.404,283.983 147.652 C 281.930 148.267,280.545 147.841,279.778 146.358 C 278.611 144.102,279.796 143.504,283.723 144.369 M215.263 180.833 C 212.155 187.382,212.060 187.760,213.177 189.100 C 214.531 190.723,215.794 189.571,217.892 184.800 C 218.328 183.810,219.070 182.657,219.542 182.238 C 221.026 180.920,219.962 174.800,218.249 174.800 C 218.181 174.800,216.838 177.515,215.263 180.833 M170.000 177.950 L 170.000 180.699 172.170 183.131 C 173.363 184.469,174.986 186.666,175.776 188.014 C 179.565 194.479,180.914 195.055,180.914 190.210 C 180.914 187.800,180.274 186.482,177.800 183.800 C 176.786 182.700,175.210 180.810,174.300 179.600 C 170.389 174.405,170.000 174.255,170.000 177.950 M246.716 225.414 C 246.780 225.857,246.285 227.426,245.616 228.901 C 244.947 230.376,244.400 232.146,244.400 232.834 C 244.400 235.106,239.284 239.435,235.000 240.790 C 234.120 241.069,232.500 241.960,231.400 242.772 C 230.300 243.583,228.504 244.687,227.408 245.224 C 224.816 246.494,223.181 248.160,219.972 252.800 C 217.105 256.944,216.310 257.417,214.545 256.028 C 212.880 254.719,210.603 254.922,207.987 256.614 C 206.784 257.391,205.350 258.124,204.800 258.241 C 204.250 258.359,203.387 258.623,202.881 258.828 C 200.994 259.593,197.132 259.074,195.200 257.797 C 194.858 257.571,191.326 257.393,187.000 257.384 C 177.415 257.364,175.403 256.882,173.303 254.107 C 171.165 251.281,168.176 248.569,166.000 247.482 C 162.898 245.931,160.743 244.656,157.297 242.330 C 154.228 240.259,153.683 239.835,150.323 236.902 C 149.253 235.968,147.941 234.918,147.408 234.569 C 145.870 233.560,144.828 230.929,145.139 228.833 C 145.364 227.310,146.400 225.941,146.400 227.167 C 146.400 227.405,146.590 227.600,146.822 227.600 C 147.055 227.600,148.360 228.503,149.722 229.606 C 152.336 231.722,158.155 234.800,159.542 234.800 C 160.939 234.800,162.516 235.685,164.676 237.681 C 165.818 238.737,167.134 239.600,167.601 239.600 C 168.068 239.600,169.621 240.165,171.052 240.855 C 173.044 241.815,174.329 242.144,176.527 242.255 C 179.932 242.427,180.840 242.616,183.000 243.600 C 183.895 244.008,185.162 244.464,185.814 244.614 C 186.466 244.765,188.454 245.588,190.230 246.444 C 195.260 248.867,196.922 248.677,202.372 245.054 C 206.254 242.473,208.243 241.786,212.821 241.444 C 215.771 241.224,217.127 240.909,219.000 240.011 C 220.320 239.378,222.210 238.661,223.200 238.417 C 225.026 237.969,231.677 235.370,234.600 233.963 C 236.465 233.065,237.974 231.704,240.200 228.916 C 243.011 225.393,246.447 223.547,246.716 225.414 M234.336 247.024 C 234.612 249.396,231.976 254.000,230.342 254.000 C 230.157 254.000,229.600 254.349,229.103 254.776 C 228.606 255.202,227.750 255.938,227.200 256.411 C 226.650 256.884,225.720 257.554,225.134 257.901 C 223.855 258.658,223.200 259.967,223.200 261.765 C 223.200 264.660,222.428 265.239,209.977 271.688 C 206.399 273.541,197.965 274.656,192.291 274.027 C 179.155 272.569,172.800 270.473,172.800 267.597 C 172.800 267.379,172.622 267.200,172.405 267.200 C 172.188 267.200,171.106 266.300,170.000 265.200 C 168.894 264.100,167.677 263.199,167.295 263.199 C 163.938 263.191,160.440 258.054,159.723 252.078 C 158.978 245.874,167.167 248.590,170.340 255.600 C 172.353 260.047,176.450 261.648,179.449 259.159 C 179.765 258.897,180.239 259.189,180.957 260.089 C 183.568 263.358,183.486 263.343,186.400 261.114 C 189.301 258.896,191.721 258.792,195.449 260.728 C 198.612 262.370,205.388 262.346,207.047 260.686 C 207.205 260.529,207.595 260.400,207.914 260.400 C 208.233 260.400,209.109 259.860,209.861 259.200 C 211.929 257.384,214.484 258.315,215.406 261.220 C 215.926 262.857,217.600 262.209,217.600 260.372 C 217.600 258.485,221.136 254.169,225.200 251.097 C 226.410 250.182,227.749 249.111,228.175 248.717 C 228.602 248.322,229.091 248.000,229.262 248.000 " stroke="none" fill="#a00010" fill-rule="evenodd" transform="translate(30,0)"></path></g></svg>
